<svg xmlns="http://www.w3.org/2000/svg" xmlns:xlink="http://www.w3.org/1999/xlink" preserveAspectRatio="xMidYMid" width="24" height="24" viewBox="0 0 24 24">
  <defs>
    <style>
      .cls-1 {
        fill: #fff;
        opacity: 0.87;
        fill-rule: evenodd;
      }
    </style>
  </defs>
  <path d="M23.340,23.341 C22.463,24.219 21.038,24.219 20.159,23.341 L14.652,17.834 C15.928,17.014 17.014,15.928 17.834,14.652 L23.340,20.159 C24.219,21.038 24.219,22.463 23.340,23.341 ZM9.000,18.000 C4.029,18.000 -0.000,13.970 -0.000,9.000 C-0.000,4.030 4.029,-0.000 9.000,-0.000 C13.970,-0.000 18.000,4.030 18.000,9.000 C18.000,13.970 13.970,18.000 9.000,18.000 ZM9.000,2.250 C5.278,2.250 2.250,5.278 2.250,9.000 C2.250,12.722 5.278,15.750 9.000,15.750 C12.722,15.750 15.750,12.722 15.750,9.000 C15.750,5.278 12.722,2.250 9.000,2.250 Z" class="cls-1"/>
</svg>
